<svg width="28" height="25" viewBox="0 0 28 25" fill="none" xmlns="http://www.w3.org/2000/svg">
<path d="M2 0H27H2ZM27.5 20C27.5 22.4853 25.4853 24.5 23 24.5H1.5L2.5 23.5H23C24.933 23.5 26.5 21.933 26.5 20H27.5ZM1.5 24.5V0H2.5V23.5L1.5 24.5ZM27.5 0V20C27.5 22.4853 25.4853 24.5 23 24.5V23.5C24.933 23.5 26.5 21.933 26.5 20V0H27.5Z" fill="black"/>
<rect width="4.18133" height="12.8" fill="black"/>
<rect x="8.36328" width="4.18133" height="12.8" fill="black"/>
<rect x="16.7266" width="4.18133" height="12.8" fill="black"/>
<rect x="9.89453" y="4.7998" width="0.933333" height="19.2" fill="black"/>
<rect x="1.79297" y="4.7998" width="0.597333" height="19.2" fill="black"/>
<rect x="18.3867" y="4.7998" width="0.933333" height="19.2" fill="black"/>
</svg>
