<svg width="195" height="33" viewBox="0 0 195 33" fill="none" xmlns="http://www.w3.org/2000/svg">
<g filter="url(#filter0_d_742_345)">
<path d="M6.23828 0H190.238H6.23828ZM190.738 20C190.738 22.4853 188.724 24.5 186.238 24.5H5.73828L6.73828 23.5H186.238C188.171 23.5 189.738 21.933 189.738 20H190.738ZM5.73828 24.5V0H6.73828V23.5L5.73828 24.5ZM190.738 0V20C190.738 22.4853 188.724 24.5 186.238 24.5V23.5C188.171 23.5 189.738 21.933 189.738 20V0H190.738Z" fill="black"/>
<rect x="4" width="4.48" height="12.8" fill="black"/>
<rect x="12.9609" width="4.48" height="12.8" fill="black"/>
<rect x="21.9219" width="4.48" height="12.8" fill="black"/>
<rect x="14.6016" y="4.7998" width="1" height="19.2" fill="black"/>
<rect x="5.92188" y="4.7998" width="0.64" height="19.2" fill="black"/>
<rect x="23.6992" y="4.7998" width="1" height="19.2" fill="black"/>
<path d="M37.72 10.0671C38.8019 11.0386 39.9169 12.0543 39.9169 13.5888C39.9169 15.1675 38.7136 16.3599 37.1349 16.3599C35.6003 16.3599 34.3528 15.1234 34.3528 13.5888C34.3528 13.5115 34.419 13.4453 34.4963 13.4453H35.3685C35.4457 13.4453 35.512 13.5115 35.512 13.5888C35.512 14.4831 36.2406 15.2007 37.1349 15.2007C38.0733 15.2007 38.7467 14.5272 38.7467 13.5888C38.7467 12.5621 37.8745 11.7672 36.9361 10.9282C35.9094 9.98978 34.8385 9.01826 34.8385 7.60514C34.8385 6.30242 35.8211 5.31986 37.1349 5.31986C38.3934 5.31986 39.4312 6.34658 39.4312 7.60514C39.4312 7.68242 39.3539 7.74866 39.2766 7.74866H38.4155C38.3272 7.74866 38.2609 7.68242 38.2609 7.60514C38.2609 6.9869 37.7531 6.47906 37.1349 6.47906C36.4614 6.47906 36.0088 6.9317 36.0088 7.60514C36.0088 8.51042 36.8368 9.26114 37.72 10.0671ZM44.1951 9.50402C45.6414 9.50402 46.8226 10.6853 46.8226 12.1426V16.1943C46.8226 16.2826 46.7454 16.3599 46.657 16.3599H45.829C45.7407 16.3599 45.6745 16.2826 45.6745 16.1943V11.988C45.6745 11.1821 45.0121 10.5087 44.1951 10.5087C43.3782 10.5087 42.7158 11.1821 42.7158 11.988V16.1943C42.7158 16.2826 42.6495 16.3599 42.5612 16.3599H41.7222C41.6338 16.3599 41.5676 16.2826 41.5676 16.1943V5.48546C41.5676 5.39714 41.6338 5.31986 41.7222 5.31986H42.5612C42.6495 5.31986 42.7158 5.39714 42.7158 5.48546V9.9677C43.1353 9.68066 43.6431 9.50402 44.1951 9.50402ZM50.2868 9.50402C50.3641 9.50402 50.4303 9.43778 50.4303 9.34946V8.4773C50.4303 8.40002 50.3641 8.32274 50.2868 8.32274H49.4146C49.3263 8.32274 49.2601 8.40002 49.2601 8.4773V9.34946C49.2601 9.43778 49.3263 9.50402 49.4146 9.50402H50.2868ZM50.4303 16.1943C50.4303 16.2826 50.3641 16.3599 50.2757 16.3599H49.4146C49.3263 16.3599 49.249 16.2826 49.249 16.1943V10.8288C49.249 10.7405 49.3263 10.6743 49.4146 10.6743H50.2757C50.3641 10.6743 50.4303 10.7405 50.4303 10.8288V16.1943ZM55.5272 9.51506C56.9735 9.51506 58.1548 10.6963 58.1548 12.1426V16.1943C58.1548 16.2826 58.0885 16.3599 58.0002 16.3599H57.1722C57.0839 16.3599 57.0066 16.2826 57.0066 16.1943V11.9991C57.0066 11.1821 56.3442 10.5197 55.5272 10.5197C54.7103 10.5197 54.0479 11.1821 54.0479 11.9991V16.1943C54.0479 16.2826 53.9706 16.3599 53.8823 16.3599H53.0212C52.9328 16.3599 52.8556 16.2826 52.8556 16.1943V9.68066C52.8556 9.59234 52.9328 9.51506 53.0212 9.51506H53.8823C53.9706 9.51506 54.0479 9.59234 54.0479 9.68066V9.9677C54.4674 9.68066 54.9752 9.51506 55.5272 9.51506ZM63.031 16.3599C61.375 16.3599 60.0281 15.013 60.0281 13.357V12.5179C60.0281 10.8619 61.375 9.51506 63.031 9.51506C64.687 9.51506 66.0339 10.8619 66.0339 12.5179V13.357C66.0339 15.013 64.687 16.3599 63.031 16.3599ZM61.1763 12.5179V13.357C61.1763 14.3837 62.0043 15.2117 63.031 15.2117C64.0467 15.2117 64.8857 14.3837 64.8857 13.357V12.5179C64.8857 11.4912 64.0467 10.6632 63.031 10.6632C62.0043 10.6632 61.1763 11.4912 61.1763 12.5179ZM70.5337 9.50402C71.9799 9.50402 73.1612 10.6853 73.1612 12.1426V16.1943C73.1612 16.2826 73.0839 16.3599 72.9956 16.3599H72.1676C72.0793 16.3599 72.0131 16.2826 72.0131 16.1943V11.988C72.0131 11.1821 71.3507 10.5087 70.5337 10.5087C69.7167 10.5087 69.0543 11.1821 69.0543 11.988V16.1943C69.0543 16.2826 68.9881 16.3599 68.8998 16.3599H68.0607C67.9724 16.3599 67.9062 16.2826 67.9062 16.1943V5.48546C67.9062 5.39714 67.9724 5.31986 68.0607 5.31986H68.8998C68.9881 5.31986 69.0543 5.39714 69.0543 5.48546V9.9677C69.4739 9.68066 69.9817 9.50402 70.5337 9.50402ZM81.7259 15.2117C81.8142 15.2117 81.8804 15.2779 81.8804 15.3552V16.2163C81.8804 16.2936 81.8142 16.3599 81.7259 16.3599C81.1076 16.3599 80.5115 16.0287 80.2134 15.5098C80.2023 15.4987 80.1913 15.4767 80.1803 15.4546C79.6393 16.0176 78.8775 16.3599 78.0385 16.3599C76.3825 16.3599 75.0356 15.013 75.0356 13.357V12.5179C75.0356 10.8619 76.3825 9.51506 78.0385 9.51506C78.7782 9.51506 79.4627 9.79106 79.9815 10.2327V9.68066C79.9815 9.59234 80.0588 9.51506 80.1471 9.51506H80.9751C81.0635 9.51506 81.1297 9.59234 81.1297 9.68066V14.5714C81.1297 14.9357 81.3947 15.2117 81.7259 15.2117ZM79.8932 13.357V12.5179C79.8932 11.4912 79.0542 10.6632 78.0385 10.6632C77.0118 10.6632 76.1838 11.4912 76.1838 12.5179V13.357C76.1838 14.3837 77.0118 15.2117 78.0385 15.2117C79.0542 15.2117 79.8932 14.3837 79.8932 13.357ZM86.8127 9.51506C86.9121 9.51506 86.9783 9.59234 86.9783 9.68066V10.5307C86.9783 10.6191 86.9121 10.6963 86.8127 10.6963C85.8081 10.6963 84.9911 11.4802 84.9359 12.4738V16.1943C84.9359 16.2826 84.8586 16.3599 84.7703 16.3599H83.9202C83.8319 16.3599 83.7546 16.2826 83.7546 16.1943V9.68066C83.7546 9.59234 83.8319 9.51506 83.9202 9.51506H84.7703C84.8586 9.51506 84.9359 9.59234 84.9359 9.68066V10.1664C85.4548 9.75794 86.1061 9.51506 86.8127 9.51506ZM95.321 15.2117C95.4093 15.2117 95.4756 15.2779 95.4756 15.3552V16.2163C95.4756 16.2936 95.4093 16.3599 95.321 16.3599C94.7028 16.3599 94.1066 16.0287 93.8085 15.5098C93.7975 15.4987 93.7864 15.4767 93.7754 15.4546C93.2344 16.0176 92.4727 16.3599 91.6336 16.3599C89.9776 16.3599 88.6308 15.013 88.6308 13.357V12.5179C88.6308 10.8619 89.9776 9.51506 91.6336 9.51506C92.3733 9.51506 93.0578 9.79106 93.5767 10.2327V9.68066C93.5767 9.59234 93.654 9.51506 93.7423 9.51506H94.5703C94.6586 9.51506 94.7248 9.59234 94.7248 9.68066V14.5714C94.7248 14.9357 94.9898 15.2117 95.321 15.2117ZM93.4884 13.357V12.5179C93.4884 11.4912 92.6493 10.6632 91.6336 10.6632C90.6069 10.6632 89.7789 11.4912 89.7789 12.5179V13.357C89.7789 14.3837 90.6069 15.2117 91.6336 15.2117C92.6493 15.2117 93.4884 14.3837 93.4884 13.357ZM109.028 7.4285L105.506 10.0008C105.451 10.0339 105.385 10.0339 105.33 10.0008L101.808 7.4285V16.2053C101.808 16.2936 101.742 16.3599 101.653 16.3599H100.803C100.726 16.3599 100.66 16.2936 100.66 16.2053V5.47442C100.66 5.41922 100.693 5.36402 100.737 5.34194C100.781 5.31986 100.847 5.31986 100.891 5.35298L105.418 8.6429L109.944 5.35298C109.988 5.31986 110.044 5.31986 110.099 5.34194C110.143 5.36402 110.176 5.41922 110.176 5.47442V16.2053C110.176 16.2936 110.11 16.3599 110.033 16.3599H109.171C109.094 16.3599 109.028 16.2936 109.028 16.2053V7.4285ZM118.23 15.2117C118.318 15.2117 118.385 15.2779 118.385 15.3552V16.2163C118.385 16.2936 118.318 16.3599 118.23 16.3599C117.667 16.3599 117.126 16.0839 116.806 15.6533C116.331 16.0949 115.702 16.3599 115.006 16.3599C113.56 16.3599 112.379 15.1786 112.379 13.7323V9.68066C112.379 9.59234 112.445 9.51506 112.533 9.51506H113.361C113.45 9.51506 113.527 9.59234 113.527 9.68066V13.8759C113.527 14.6928 114.189 15.3552 115.006 15.3552C115.779 15.3552 116.408 14.7701 116.475 14.0194V9.68066C116.475 9.59234 116.552 9.51506 116.64 9.51506H117.468C117.557 9.51506 117.634 9.59234 117.634 9.68066L117.645 13.0037V13.7323C117.645 13.7986 117.634 13.8538 117.634 13.92V14.5714C117.634 14.9247 117.888 15.2117 118.23 15.2117ZM121.322 14.1519L121.333 14.3285C121.333 14.7922 121.731 15.1786 122.195 15.1786C122.702 15.1786 123.078 14.8363 123.078 14.3285C123.078 13.92 122.802 13.6771 122.316 13.2797L121.565 12.6835C121.002 12.1978 120.461 11.7672 120.461 10.8951C120.461 9.9125 121.212 9.17282 122.195 9.17282C123.155 9.17282 123.928 9.94562 123.928 10.8951V11.0717C123.928 11.16 123.851 11.2373 123.762 11.2373H122.923C122.824 11.2373 122.758 11.16 122.758 11.0717V10.9282C122.758 10.608 122.493 10.3651 122.172 10.3651C121.863 10.3651 121.631 10.5749 121.631 10.9282C121.631 11.2373 121.852 11.4139 122.338 11.8003L123.089 12.3634C123.685 12.8712 124.248 13.368 124.248 14.3175C124.248 15.4767 123.365 16.3599 122.195 16.3599C121.068 16.3599 120.152 15.4435 120.152 14.3175V14.1519C120.152 14.0635 120.218 13.9863 120.318 13.9863H121.157C121.245 13.9863 121.322 14.0635 121.322 14.1519ZM127.718 9.50402C127.795 9.50402 127.861 9.43778 127.861 9.34946V8.4773C127.861 8.40002 127.795 8.32274 127.718 8.32274H126.846C126.757 8.32274 126.691 8.40002 126.691 8.4773V9.34946C126.691 9.43778 126.757 9.50402 126.846 9.50402H127.718ZM127.861 16.1943C127.861 16.2826 127.795 16.3599 127.707 16.3599H126.846C126.757 16.3599 126.68 16.2826 126.68 16.1943V10.8288C126.68 10.7405 126.757 10.6743 126.846 10.6743H127.707C127.795 10.6743 127.861 10.7405 127.861 10.8288V16.1943ZM134.647 11.7451C134.36 11.1048 133.709 10.6632 132.969 10.6632C131.943 10.6632 131.115 11.4912 131.115 12.5179V13.357C131.115 14.3837 131.943 15.2117 132.969 15.2117C133.709 15.2117 134.36 14.7701 134.647 14.1298C134.691 14.0635 134.769 14.0304 134.846 14.0635L135.619 14.4389C135.696 14.472 135.718 14.5603 135.685 14.6376C135.199 15.6533 134.162 16.3599 132.969 16.3599C131.313 16.3599 129.955 15.013 129.955 13.357V12.5179C129.955 10.8619 131.313 9.51506 132.969 9.51506C134.162 9.51506 135.199 10.2216 135.685 11.2373C135.718 11.3146 135.696 11.4029 135.619 11.436L134.846 11.8114C134.769 11.8445 134.691 11.8114 134.647 11.7451ZM143.7 10.0671C144.782 11.0386 145.897 12.0543 145.897 13.5888C145.897 15.1675 144.693 16.3599 143.115 16.3599C141.58 16.3599 140.332 15.1234 140.332 13.5888C140.332 13.5115 140.399 13.4453 140.476 13.4453H141.348C141.425 13.4453 141.492 13.5115 141.492 13.5888C141.492 14.4831 142.22 15.2007 143.115 15.2007C144.053 15.2007 144.726 14.5272 144.726 13.5888C144.726 12.5621 143.854 11.7672 142.916 10.9282C141.889 9.98978 140.818 9.01826 140.818 7.60514C140.818 6.30242 141.801 5.31986 143.115 5.31986C144.373 5.31986 145.411 6.34658 145.411 7.60514C145.411 7.68242 145.334 7.74866 145.256 7.74866H144.395C144.307 7.74866 144.241 7.68242 144.241 7.60514C144.241 6.9869 143.733 6.47906 143.115 6.47906C142.441 6.47906 141.988 6.9317 141.988 7.60514C141.988 8.51042 142.816 9.26114 143.7 10.0671ZM151.908 11.7451C151.621 11.1048 150.97 10.6632 150.23 10.6632C149.203 10.6632 148.375 11.4912 148.375 12.5179V13.357C148.375 14.3837 149.203 15.2117 150.23 15.2117C150.97 15.2117 151.621 14.7701 151.908 14.1298C151.952 14.0635 152.03 14.0304 152.107 14.0635L152.88 14.4389C152.957 14.472 152.979 14.5603 152.946 14.6376C152.46 15.6533 151.422 16.3599 150.23 16.3599C148.574 16.3599 147.216 15.013 147.216 13.357V12.5179C147.216 10.8619 148.574 9.51506 150.23 9.51506C151.422 9.51506 152.46 10.2216 152.946 11.2373C152.979 11.3146 152.957 11.4029 152.88 11.436L152.107 11.8114C152.03 11.8445 151.952 11.8114 151.908 11.7451ZM157.463 9.50402C158.909 9.50402 160.09 10.6853 160.09 12.1426V16.1943C160.09 16.2826 160.013 16.3599 159.925 16.3599H159.097C159.009 16.3599 158.942 16.2826 158.942 16.1943V11.988C158.942 11.1821 158.28 10.5087 157.463 10.5087C156.646 10.5087 155.984 11.1821 155.984 11.988V16.1943C155.984 16.2826 155.917 16.3599 155.829 16.3599H154.99C154.902 16.3599 154.835 16.2826 154.835 16.1943V5.48546C154.835 5.39714 154.902 5.31986 154.99 5.31986H155.829C155.917 5.31986 155.984 5.39714 155.984 5.48546V9.9677C156.403 9.68066 156.911 9.50402 157.463 9.50402ZM164.968 16.3599C163.312 16.3599 161.965 15.013 161.965 13.357V12.5179C161.965 10.8619 163.312 9.51506 164.968 9.51506C166.624 9.51506 167.971 10.8619 167.971 12.5179V13.357C167.971 15.013 166.624 16.3599 164.968 16.3599ZM163.113 12.5179V13.357C163.113 14.3837 163.941 15.2117 164.968 15.2117C165.983 15.2117 166.822 14.3837 166.822 13.357V12.5179C166.822 11.4912 165.983 10.6632 164.968 10.6632C163.941 10.6632 163.113 11.4912 163.113 12.5179ZM172.515 16.3599C170.859 16.3599 169.512 15.013 169.512 13.357V12.5179C169.512 10.8619 170.859 9.51506 172.515 9.51506C174.171 9.51506 175.517 10.8619 175.517 12.5179V13.357C175.517 15.013 174.171 16.3599 172.515 16.3599ZM170.66 12.5179V13.357C170.66 14.3837 171.488 15.2117 172.515 15.2117C173.53 15.2117 174.369 14.3837 174.369 13.357V12.5179C174.369 11.4912 173.53 10.6632 172.515 10.6632C171.488 10.6632 170.66 11.4912 170.66 12.5179ZM178.56 15.1786H178.969C179.057 15.1786 179.134 15.2559 179.134 15.3442V16.1943C179.134 16.2826 179.057 16.3599 178.969 16.3599H177.544C177.456 16.3599 177.39 16.2826 177.39 16.1943V5.48546C177.39 5.39714 177.456 5.31986 177.544 5.31986H178.405C178.494 5.31986 178.56 5.39714 178.56 5.48546V15.1786Z" fill="black"/>
</g>
<defs>
<filter id="filter0_d_742_345" x="0" y="0" width="194.738" height="32.5" filterUnits="userSpaceOnUse" color-interpolation-filters="sRGB">
<feFlood flood-opacity="0" result="BackgroundImageFix"/>
<feColorMatrix in="SourceAlpha" type="matrix" values="0 0 0 0 0 0 0 0 0 0 0 0 0 0 0 0 0 0 127 0" result="hardAlpha"/>
<feOffset dy="4"/>
<feGaussianBlur stdDeviation="2"/>
<feComposite in2="hardAlpha" operator="out"/>
<feColorMatrix type="matrix" values="0 0 0 0 0 0 0 0 0 0 0 0 0 0 0 0 0 0 0.25 0"/>
<feBlend mode="normal" in2="BackgroundImageFix" result="effect1_dropShadow_742_345"/>
<feBlend mode="normal" in="SourceGraphic" in2="effect1_dropShadow_742_345" result="shape"/>
</filter>
</defs>
</svg>
